<svg width="25" height="25" viewBox="0 0 25 25" fill="none" xmlns="http://www.w3.org/2000/svg">
<path d="M12.5453 24.9799C10.1524 24.9887 7.80722 24.3104 5.78842 23.0257C3.76963 21.7409 2.16206 19.9036 1.15669 17.7321C0.151325 15.5606 -0.209579 13.1461 0.116854 10.7756C0.443287 8.405 1.44334 6.17795 2.9982 4.35899C4.75634 2.32165 7.12175 0.902118 9.74667 0.309101C12.3716 -0.283916 15.1175 -0.0191311 17.5808 1.06453C17.6549 1.09449 17.7222 1.13909 17.7787 1.19565C17.8353 1.25221 17.8798 1.31958 17.9097 1.39374C17.9396 1.4679 17.9543 1.54732 17.9528 1.62727C17.9513 1.70722 17.9338 1.78605 17.9012 1.85906C17.8686 1.93208 17.8216 1.99777 17.763 2.05222C17.7045 2.10668 17.6356 2.14877 17.5604 2.176C17.4852 2.20323 17.4053 2.21503 17.3255 2.21069C17.2456 2.20636 17.1675 2.18598 17.0957 2.15078C14.8685 1.16125 12.3813 0.91766 10.0045 1.45628C7.6277 1.9949 5.48848 3.28691 3.90548 5.13987C2.32249 6.99283 1.38043 9.30758 1.21962 11.7393C1.05882 14.1711 1.68787 16.5897 3.01308 18.635C4.34058 20.6815 6.29419 22.2438 8.58241 23.089C10.8706 23.9342 13.3708 24.0168 15.7098 23.3246C18.0488 22.6324 20.1014 21.2024 21.5611 19.2481C23.0209 17.2938 23.8096 14.9199 23.8096 12.4806V11.3914C23.8096 11.2335 23.8723 11.0821 23.9839 10.9705C24.0955 10.8589 24.2469 10.7962 24.4048 10.7962C24.5627 10.7962 24.714 10.8589 24.8257 10.9705C24.9373 11.0821 25 11.2335 25 11.3914V12.4806C24.9882 15.174 24.1116 17.7924 22.4995 19.95C20.8873 22.1076 18.6247 23.6903 16.0451 24.4651C14.9094 24.8043 13.7306 24.9777 12.5453 24.9799Z" fill="#C29F5B"/>
<path d="M12.5012 15.4744C12.344 15.4746 12.1932 15.4125 12.0816 15.3018L8.51037 11.7306C8.39868 11.6189 8.33594 11.4674 8.33594 11.3095C8.33594 11.1515 8.39868 11 8.51037 10.8884C8.62205 10.7767 8.77353 10.7139 8.93148 10.7139C9.08942 10.7139 9.2409 10.7767 9.35258 10.8884L12.5012 14.037L23.9828 2.54357C24.0381 2.48827 24.1037 2.4444 24.176 2.41447C24.2482 2.38454 24.3257 2.36914 24.4039 2.36914C24.4821 2.36914 24.5595 2.38454 24.6318 2.41447C24.704 2.4444 24.7697 2.48827 24.825 2.54357C24.8803 2.59887 24.9241 2.66452 24.9541 2.73678C24.984 2.80903 24.9994 2.88647 24.9994 2.96468C24.9994 3.04289 24.984 3.12033 24.9541 3.19258C24.9241 3.26483 24.8803 3.33049 24.825 3.38579L12.9208 15.2899C12.8652 15.3451 12.7993 15.3887 12.7268 15.4183C12.6542 15.448 12.5766 15.463 12.4983 15.4625L12.5012 15.4744Z" fill="#C29F5B"/>
</svg>
