<svg width="30" height="30" viewBox="0 0 30 30" fill="none" xmlns="http://www.w3.org/2000/svg">
<rect width="30" height="30" rx="15" transform="matrix(-1 0 0 1 30 0)" fill="#22ADE9"/>
<g clip-path="url(#clip0)">
<path fill-rule="evenodd" clip-rule="evenodd" d="M18.4831 19.7747C18.4831 19.7747 18.2179 20.4527 17.4895 20.1269L13.1185 16.6967L11.5291 15.9107L8.85371 14.9879C8.85371 14.9879 8.44331 14.8391 8.40371 14.5139C8.36351 14.1881 8.86691 14.0117 8.86691 14.0117L19.5031 9.74209C19.5031 9.74209 20.3773 9.34909 20.3773 10.0001L18.4831 19.7741V19.7747Z" fill="#FFFFFE"/>
<path fill-rule="evenodd" clip-rule="evenodd" d="M12.7833 19.6654C12.7833 19.6654 12.6555 19.6534 12.4965 19.1374C12.3375 18.6226 11.5293 15.9112 11.5293 15.9112L17.9535 11.7352C17.9535 11.7352 18.3243 11.5048 18.3111 11.7352C18.3111 11.7352 18.3771 11.776 18.1791 11.9662C17.9799 12.1558 13.1325 16.6162 13.1325 16.6162" fill="#E6E6E6"/>
<path fill-rule="evenodd" clip-rule="evenodd" d="M14.7948 18.012L13.0657 19.626C13.0657 19.626 12.9307 19.7304 12.7831 19.665L13.1137 16.668" fill="#CDCDCD"/>
</g>
<defs>
<clipPath id="clip0">
<rect width="12" height="10.8" fill="white" transform="translate(8.40131 9.6001)"/>
</clipPath>
</defs>
</svg>
