<svg width="40" height="40" viewBox="0 0 40 40" fill="none" xmlns="http://www.w3.org/2000/svg">
<path d="M20.0725 39.9679C16.2438 39.9819 12.4915 38.8967 9.26147 36.8411C6.0314 34.7854 3.45929 31.8458 1.8507 28.3714C0.242119 24.897 -0.335327 21.0338 0.186966 17.2409C0.70926 13.448 2.30934 9.88472 4.79712 6.97439C7.61015 3.71464 11.3948 1.44339 15.5947 0.494562C19.7945 -0.454265 24.188 -0.0306098 28.1292 1.70324C28.2478 1.75119 28.3556 1.82254 28.446 1.91304C28.5364 2.00354 28.6077 2.11133 28.6555 2.22999C28.7034 2.34864 28.7268 2.47572 28.7245 2.60363C28.7222 2.73155 28.6941 2.85768 28.6419 2.9745C28.5897 3.09132 28.5146 3.19643 28.4209 3.28356C28.3272 3.37068 28.2169 3.43804 28.0966 3.4816C27.9763 3.52516 27.8485 3.54404 27.7207 3.53711C27.593 3.53017 27.4679 3.49757 27.3531 3.44124C23.7896 1.85801 19.8101 1.46826 16.0072 2.33005C12.2043 3.19184 8.78156 5.25906 6.24877 8.22379C3.71599 11.1885 2.20869 14.8921 1.9514 18.7829C1.69411 22.6738 2.70059 26.5436 4.82092 29.816C6.94493 33.0903 10.0707 35.5901 13.7318 36.9424C17.393 38.2947 21.3932 38.4269 25.1357 37.3194C28.8781 36.2118 32.1622 33.9239 34.4978 30.797C36.8334 27.6701 38.0953 23.8718 38.0953 19.9689V18.2262C38.0953 17.9736 38.1957 17.7314 38.3743 17.5528C38.5529 17.3742 38.7951 17.2738 39.0477 17.2738C39.3002 17.2738 39.5425 17.3742 39.7211 17.5528C39.8997 17.7314 40 17.9736 40 18.2262V19.9689C39.9811 24.2784 38.5786 28.4678 35.9991 31.92C33.4196 35.3721 29.7995 37.9046 25.6722 39.1441C23.855 39.6869 21.969 39.9644 20.0725 39.9679Z" fill="#C29F5B"/>
<path d="M20.0013 24.759C19.7498 24.7592 19.5084 24.6599 19.3299 24.4828L13.6159 18.7688C13.4372 18.5901 13.3368 18.3478 13.3368 18.0951C13.3368 17.8423 13.4372 17.6 13.6159 17.4213C13.7946 17.2426 14.037 17.1422 14.2897 17.1422C14.5424 17.1422 14.7847 17.2426 14.9634 17.4213L20.0013 22.4591L38.3717 4.06961C38.4602 3.98113 38.5652 3.91095 38.6808 3.86306C38.7965 3.81517 38.9204 3.79053 39.0455 3.79053C39.1706 3.79053 39.2945 3.81517 39.4101 3.86306C39.5257 3.91095 39.6308 3.98113 39.7193 4.06961C39.8077 4.1581 39.8779 4.26314 39.9258 4.37874C39.9737 4.49435 39.9983 4.61826 39.9983 4.74339C39.9983 4.86852 39.9737 4.99242 39.9258 5.10803C39.8779 5.22364 39.8077 5.32868 39.7193 5.41716L20.6727 24.4638C20.5837 24.552 20.4781 24.6219 20.3621 24.6693C20.2461 24.7166 20.1218 24.7407 19.9965 24.7399L20.0013 24.759Z" fill="#C29F5B"/>
</svg>
