<svg width="60" height="80" viewBox="0 0 60 80" fill="none" xmlns="http://www.w3.org/2000/svg">
<path d="M11.25 45.3438C11.7678 45.3438 12.1875 44.924 12.1875 44.4062C12.1875 43.8885 11.7678 43.4688 11.25 43.4688C10.7322 43.4688 10.3125 43.8885 10.3125 44.4062C10.3125 44.924 10.7322 45.3438 11.25 45.3438Z" fill="#C29F5B"/>
<path d="M47.3438 45.3438C47.8615 45.3438 48.2812 44.924 48.2812 44.4062C48.2812 43.8885 47.8615 43.4688 47.3438 43.4688C46.826 43.4688 46.4062 43.8885 46.4062 44.4062C46.4062 44.924 46.826 45.3438 47.3438 45.3438Z" fill="#C29F5B"/>
<path d="M54.375 64.5625C54.3748 64.8111 54.2759 65.0494 54.1001 65.2251C53.9244 65.4009 53.6861 65.4998 53.4375 65.5H50.625C50.3764 65.4998 50.1381 65.4009 49.9624 65.2251C49.7866 65.0494 49.6877 64.8111 49.6875 64.5625V62.2188H47.8125V64.5625C47.8133 65.3082 48.1099 66.0231 48.6372 66.5503C49.1644 67.0776 49.8793 67.3742 50.625 67.375H53.4375C54.1832 67.3742 54.8981 67.0776 55.4253 66.5503C55.9526 66.0231 56.2492 65.3082 56.25 64.5625V62.2188H54.375V64.5625Z" fill="#C29F5B"/>
<path d="M5.15625 43C5.1565 42.7514 5.25535 42.5131 5.43111 42.3374C5.60687 42.1616 5.84519 42.0627 6.09375 42.0625H53.9062C54.1548 42.0627 54.3931 42.1616 54.5689 42.3374C54.7446 42.5131 54.8435 42.7514 54.8438 43V45.3438H56.7188V43C56.7179 42.2543 56.4214 41.5394 55.8941 41.0122C55.3668 40.4849 54.6519 40.1883 53.9062 40.1875H48.2812V38.7812C48.2812 38.5326 48.1825 38.2942 48.0067 38.1183C47.8308 37.9425 47.5924 37.8438 47.3438 37.8438C47.0951 37.8438 46.8567 37.9425 46.6808 38.1183C46.505 38.2942 46.4062 38.5326 46.4062 38.7812V40.1875H15V26.125H24.8438V26.5938C24.8454 27.5489 25.1707 28.4753 25.7666 29.2218C26.3626 29.9683 27.1939 30.4907 28.125 30.7039V31.6829C28.125 31.9316 28.2238 32.17 28.3996 32.3458C28.5754 32.5217 28.8139 32.6204 29.0625 32.6204C29.3111 32.6204 29.5496 32.5217 29.7254 32.3458C29.9012 32.17 30 31.9316 30 31.6829V30.7039C30.9311 30.4907 31.7624 29.9683 32.3584 29.2218C32.9543 28.4753 33.2796 27.5489 33.2812 26.5938V26.125H42.6562V33.625C42.657 34.2464 42.9041 34.8421 43.3435 35.2815C43.7829 35.7209 44.3786 35.968 45 35.9688H48.75C49.3714 35.968 49.9671 35.7209 50.4065 35.2815C50.8459 34.8421 51.093 34.2464 51.0938 33.625V15.8125C51.0929 15.0668 50.7964 14.3519 50.2691 13.8247C49.7418 13.2974 49.0269 13.0008 48.2812 13H45.4688C44.7231 13.0008 44.0082 13.2974 43.4809 13.8247C42.9536 14.3519 42.6571 15.0668 42.6562 15.8125V18.1562H15V15.3438C14.9993 14.7224 14.7521 14.1267 14.3127 13.6873C13.8733 13.2479 13.2776 13.0007 12.6562 13H8.4375C7.81612 13.0007 7.22041 13.2479 6.78103 13.6873C6.34165 14.1267 6.09448 14.7224 6.09375 15.3438V40.1875C5.34808 40.1883 4.63318 40.4849 4.10591 41.0122C3.57864 41.5394 3.28206 42.2543 3.28125 43V45.3438H5.15625V43ZM31.4062 26.5938C31.4062 27.2154 31.1593 27.8115 30.7198 28.251C30.2802 28.6906 29.6841 28.9375 29.0625 28.9375C28.4409 28.9375 27.8448 28.6906 27.4052 28.251C26.9657 27.8115 26.7188 27.2154 26.7188 26.5938V26.125H31.4062V26.5938ZM7.96875 15.3438C7.96891 15.2195 8.01835 15.1003 8.10622 15.0125C8.1941 14.9246 8.31323 14.8752 8.4375 14.875H12.6562C12.7805 14.8752 12.8997 14.9246 12.9875 15.0125C13.0754 15.1003 13.1248 15.2195 13.125 15.3438V19.0938C13.125 19.3424 13.2238 19.5808 13.3996 19.7566C13.5754 19.9325 13.8139 20.0312 14.0625 20.0312H43.5938C43.8424 20.0312 44.0808 19.9325 44.2566 19.7566C44.4325 19.5808 44.5312 19.3424 44.5312 19.0938V15.8125C44.5315 15.5639 44.6304 15.3256 44.8061 15.1499C44.9819 14.9741 45.2202 14.8752 45.4688 14.875H48.2812C48.5298 14.8752 48.7681 14.9741 48.9439 15.1499C49.1196 15.3256 49.2185 15.5639 49.2188 15.8125V33.625C49.2186 33.7493 49.1692 33.8684 49.0813 33.9563C48.9934 34.0442 48.8743 34.0936 48.75 34.0938H45C44.8757 34.0936 44.7566 34.0442 44.6687 33.9563C44.5808 33.8684 44.5314 33.7493 44.5312 33.625V25.1875C44.5312 24.9389 44.4325 24.7004 44.2566 24.5246C44.0808 24.3488 43.8424 24.25 43.5938 24.25H14.0625C13.8139 24.25 13.5754 24.3488 13.3996 24.5246C13.2238 24.7004 13.125 24.9389 13.125 25.1875V40.1875H7.96875V15.3438Z" fill="#C29F5B"/>
<path d="M57.1875 47.2188H2.8125C2.06683 47.2196 1.35193 47.5161 0.824661 48.0434C0.297391 48.5707 0.000813933 49.2856 0 50.0312L0 57.5312C0.000813933 58.2769 0.297391 58.9918 0.824661 59.5191C1.35193 60.0464 2.06683 60.3429 2.8125 60.3438H57.1875C57.9332 60.3429 58.6481 60.0464 59.1753 59.5191C59.7026 58.9918 59.9992 58.2769 60 57.5312V50.0312C59.9992 49.2856 59.7026 48.5707 59.1753 48.0434C58.6481 47.5161 57.9332 47.2196 57.1875 47.2188ZM58.125 57.5312C58.1248 57.7798 58.0259 58.0181 57.8501 58.1939C57.6744 58.3696 57.4361 58.4685 57.1875 58.4688H2.8125C2.56394 58.4685 2.32562 58.3696 2.14986 58.1939C1.9741 58.0181 1.87525 57.7798 1.875 57.5312V50.0312C1.87525 49.7827 1.9741 49.5444 2.14986 49.3686C2.32562 49.1929 2.56394 49.094 2.8125 49.0938H57.1875C57.4361 49.094 57.6744 49.1929 57.8501 49.3686C58.0259 49.5444 58.1248 49.7827 58.125 50.0312V57.5312Z" fill="#C29F5B"/>
<path d="M6.5625 52.8438H6.09375C5.84511 52.8438 5.60665 52.9425 5.43084 53.1183C5.25502 53.2942 5.15625 53.5326 5.15625 53.7812C5.15625 54.0299 5.25502 54.2683 5.43084 54.4442C5.60665 54.62 5.84511 54.7188 6.09375 54.7188H6.5625C6.81114 54.7188 7.0496 54.62 7.22541 54.4442C7.40123 54.2683 7.5 54.0299 7.5 53.7812C7.5 53.5326 7.40123 53.2942 7.22541 53.1183C7.0496 52.9425 6.81114 52.8438 6.5625 52.8438Z" fill="#C29F5B"/>
<path d="M11.3456 52.8438H10.3889C10.1403 52.8438 9.90182 52.9425 9.726 53.1183C9.55019 53.2942 9.45142 53.5326 9.45142 53.7812C9.45142 54.0299 9.55019 54.2683 9.726 54.4442C9.90182 54.62 10.1403 54.7188 10.3889 54.7188H11.3456C11.5943 54.7188 11.8327 54.62 12.0085 54.4442C12.1844 54.2683 12.2831 54.0299 12.2831 53.7812C12.2831 53.5326 12.1844 53.2942 12.0085 53.1183C11.8327 52.9425 11.5943 52.8438 11.3456 52.8438Z" fill="#C29F5B"/>
<path d="M35.2613 52.8438H34.3048C34.0562 52.8438 33.8177 52.9425 33.6419 53.1183C33.4661 53.2942 33.3673 53.5326 33.3673 53.7812C33.3673 54.0299 33.4661 54.2683 33.6419 54.4442C33.8177 54.62 34.0562 54.7188 34.3048 54.7188H35.2613C35.5099 54.7188 35.7484 54.62 35.9242 54.4442C36.1 54.2683 36.1988 54.0299 36.1988 53.7812C36.1988 53.5326 36.1 53.2942 35.9242 53.1183C35.7484 52.9425 35.5099 52.8438 35.2613 52.8438Z" fill="#C29F5B"/>
<path d="M30.4781 52.8438H29.5216C29.273 52.8438 29.0345 52.9425 28.8587 53.1183C28.6829 53.2942 28.5841 53.5326 28.5841 53.7812C28.5841 54.0299 28.6829 54.2683 28.8587 54.4442C29.0345 54.62 29.273 54.7188 29.5216 54.7188H30.4781C30.7267 54.7188 30.9652 54.62 31.141 54.4442C31.3168 54.2683 31.4156 54.0299 31.4156 53.7812C31.4156 53.5326 31.3168 53.2942 31.141 53.1183C30.9652 52.9425 30.7267 52.8438 30.4781 52.8438Z" fill="#C29F5B"/>
<path d="M44.8276 52.8438H43.8712C43.6225 52.8438 43.3841 52.9425 43.2082 53.1183C43.0324 53.2942 42.9337 53.5326 42.9337 53.7812C42.9337 54.0299 43.0324 54.2683 43.2082 54.4442C43.3841 54.62 43.6225 54.7188 43.8712 54.7188H44.8277C45.0763 54.7188 45.3148 54.62 45.4906 54.4442C45.6664 54.2683 45.7652 54.0299 45.7652 53.7812C45.7652 53.5326 45.6664 53.2942 45.4906 53.1183C45.3148 52.9425 45.0763 52.8438 44.8277 52.8438H44.8276Z" fill="#C29F5B"/>
<path d="M40.0445 52.8438H39.088C38.8394 52.8438 38.6009 52.9425 38.4251 53.1183C38.2493 53.2942 38.1505 53.5326 38.1505 53.7812C38.1505 54.0299 38.2493 54.2683 38.4251 54.4442C38.6009 54.62 38.8394 54.7188 39.088 54.7188H40.0445C40.2932 54.7188 40.5316 54.62 40.7074 54.4442C40.8832 54.2683 40.982 54.0299 40.982 53.7812C40.982 53.5326 40.8832 53.2942 40.7074 53.1183C40.5316 52.9425 40.2932 52.8438 40.0445 52.8438H40.0445Z" fill="#C29F5B"/>
<path d="M49.6108 52.8438H48.6543C48.4057 52.8438 48.1672 52.9425 47.9914 53.1183C47.8156 53.2942 47.7168 53.5326 47.7168 53.7812C47.7168 54.0299 47.8156 54.2683 47.9914 54.4442C48.1672 54.62 48.4057 54.7188 48.6543 54.7188H49.6108C49.8594 54.7188 50.0979 54.62 50.2737 54.4442C50.4495 54.2683 50.5483 54.0299 50.5483 53.7812C50.5483 53.5326 50.4495 53.2942 50.2737 53.1183C50.0979 52.9425 49.8594 52.8438 49.6108 52.8438Z" fill="#C29F5B"/>
<path d="M16.1288 52.8438H15.1721C14.9235 52.8438 14.685 52.9425 14.5092 53.1183C14.3334 53.2942 14.2346 53.5326 14.2346 53.7812C14.2346 54.0299 14.3334 54.2683 14.5092 54.4442C14.685 54.62 14.9235 54.7188 15.1721 54.7188H16.1288C16.3775 54.7188 16.6159 54.62 16.7918 54.4442C16.9676 54.2683 17.0663 54.0299 17.0663 53.7812C17.0663 53.5326 16.9676 53.2942 16.7918 53.1183C16.6159 52.9425 16.3775 52.8438 16.1288 52.8438Z" fill="#C29F5B"/>
<path d="M20.912 52.8438H19.9553C19.7067 52.8438 19.4682 52.9425 19.2924 53.1183C19.1166 53.2942 19.0178 53.5326 19.0178 53.7812C19.0178 54.0299 19.1166 54.2683 19.2924 54.4442C19.4682 54.62 19.7067 54.7188 19.9553 54.7188H20.912C21.1607 54.7188 21.3991 54.62 21.575 54.4442C21.7508 54.2683 21.8495 54.0299 21.8495 53.7812C21.8495 53.5326 21.7508 53.2942 21.575 53.1183C21.3991 52.9425 21.1607 52.8438 20.912 52.8438Z" fill="#C29F5B"/>
<path d="M25.695 52.8438H24.7385C24.4898 52.8438 24.2514 52.9425 24.0756 53.1183C23.8997 53.2942 23.801 53.5326 23.801 53.7812C23.801 54.0299 23.8997 54.2683 24.0756 54.4442C24.2514 54.62 24.4898 54.7188 24.7385 54.7188H25.695C25.9436 54.7188 26.1821 54.62 26.3579 54.4442C26.5337 54.2683 26.6325 54.0299 26.6325 53.7812C26.6325 53.5326 26.5337 53.2942 26.3579 53.1183C26.1821 52.9425 25.9436 52.8438 25.695 52.8438Z" fill="#C29F5B"/>
<path d="M53.9062 52.8438H53.4375C53.1889 52.8438 52.9504 52.9425 52.7746 53.1183C52.5988 53.2942 52.5 53.5326 52.5 53.7812C52.5 54.0299 52.5988 54.2683 52.7746 54.4442C52.9504 54.62 53.1889 54.7188 53.4375 54.7188H53.9062C54.1549 54.7188 54.3933 54.62 54.5692 54.4442C54.745 54.2683 54.8438 54.0299 54.8438 53.7812C54.8438 53.5326 54.745 53.2942 54.5692 53.1183C54.3933 52.9425 54.1549 52.8438 53.9062 52.8438Z" fill="#C29F5B"/>
<path d="M10.3125 64.5625C10.3123 64.8111 10.2134 65.0494 10.0376 65.2251C9.86188 65.4009 9.62356 65.4998 9.375 65.5H6.5625C6.31394 65.4998 6.07562 65.4009 5.89986 65.2251C5.7241 65.0494 5.62525 64.8111 5.625 64.5625V62.2188H3.75V64.5625C3.75081 65.3082 4.04739 66.0231 4.57466 66.5503C5.10193 67.0776 5.81683 67.3742 6.5625 67.375H9.375C10.1207 67.3742 10.8356 67.0776 11.3628 66.5503C11.8901 66.0231 12.1867 65.3082 12.1875 64.5625V62.2188H10.3125V64.5625Z" fill="#C29F5B"/>
</svg>
