<svg width="60" height="80" viewBox="0 0 60 80" fill="none" xmlns="http://www.w3.org/2000/svg">
<g clip-path="url(#clip0)">
<path d="M43.5757 57.3861C43.9943 58.4745 44.4128 59.5558 44.8314 60.6442C44.9989 61.0767 45.1803 61.5093 45.3338 61.9418C45.3477 61.9767 45.3617 62.0255 45.3686 62.0465C45.3896 62.0953 45.3965 62.2418 45.3826 62.0465C45.3896 62.1093 45.3826 62.1651 45.3826 62.2279C45.3826 61.9418 45.3756 62.2279 45.3756 62.2139C45.3686 62.2418 45.3547 62.2697 45.3477 62.2976C45.3617 62.2697 45.3686 62.2418 45.3826 62.2139C45.3826 62.2139 45.2989 62.3534 45.3965 62.2279C45.3686 62.2627 45.1733 62.4162 45.3338 62.3116C45.2291 62.3813 45.0128 62.4162 45.3268 62.3395C45.3128 62.3395 45.3058 62.3465 45.2919 62.3534C45.2291 62.3744 45.1663 62.4023 45.1035 62.4302C43.8268 62.9255 42.5571 63.4139 41.2804 63.9092C40.9036 64.0557 40.5269 64.2301 40.1362 64.3348C40.2269 64.3069 40.2688 64.3766 40.1362 64.3278C40.1013 64.3139 39.9339 64.272 40.1432 64.3348C40.0874 64.3139 40.0246 64.3069 39.9688 64.2859C40.1223 64.3418 39.9688 64.2999 39.9757 64.272C39.9618 64.3627 40.185 64.2999 39.9757 64.272C39.9409 64.265 39.8502 64.1046 39.9618 64.272C39.8641 64.1185 39.8711 64.0487 39.9339 64.258C39.892 64.1046 39.8153 63.958 39.7595 63.8115C39.2851 62.5767 38.8037 61.3349 38.3293 60.1C38.127 59.5768 37.6316 59.2 37.0386 59.3675C31.862 60.8535 26.1761 60.8535 21.0065 59.3675C20.4204 59.2 19.9181 59.5768 19.7158 60.1C19.2902 61.2023 18.8646 62.3046 18.4391 63.4069C18.3484 63.6441 18.2507 63.8883 18.16 64.1255C18.1461 64.1673 18.1182 64.2162 18.1042 64.265C18.1391 64.1464 18.2368 64.0836 18.1251 64.2022C17.9926 64.3418 18.0972 64.2511 18.1251 64.2162C18.0972 64.2511 18.0623 64.2859 18.0275 64.3139C17.9716 64.3627 17.9856 64.3557 18.0623 64.2859C18.0623 64.3069 17.8391 64.3836 18.0693 64.2999C18.0135 64.3208 17.9577 64.3348 17.8949 64.3487C17.9437 64.3348 18.0972 64.3418 17.9019 64.3418C17.6926 64.3348 17.867 64.3348 17.9019 64.3487C17.8251 64.3278 17.7414 64.2999 17.6647 64.272C17.4972 64.2092 17.3298 64.1394 17.1624 64.0766C15.8508 63.5743 14.5461 63.065 13.2346 62.5627C13.0741 62.4999 12.9136 62.4302 12.7462 62.3744C12.7322 62.3674 12.7183 62.3604 12.7043 62.3604C12.9625 62.4093 12.8369 62.4232 12.6974 62.3325C12.802 62.4023 12.7113 62.3953 12.6974 62.3186C12.6764 62.179 12.5648 62.3395 12.6974 62.3186C12.6764 62.3186 12.5997 62.0953 12.6834 62.3255C12.6625 62.2627 12.6346 62.0186 12.6485 62.2488C12.6485 62.186 12.6415 62.1302 12.6485 62.0674C12.6415 62.1302 12.5997 62.2418 12.6625 62.0674C12.6764 62.0325 12.6834 61.9976 12.6974 61.9627C12.7183 61.9139 12.7392 61.8651 12.7532 61.8093C12.8369 61.586 12.9276 61.3558 13.0113 61.1325C13.4927 59.8907 13.9671 58.6489 14.4485 57.4071C14.6229 56.9606 14.3299 56.4652 13.9671 56.228C12.3416 55.1676 10.8834 53.9257 9.57883 52.3909C9.23698 51.9932 9.08349 51.7909 8.80443 51.4072C8.53234 51.0305 8.28119 50.6398 8.03701 50.2491C7.79981 49.8584 7.58353 49.4538 7.38121 49.0421C7.13005 48.5329 7.03936 48.3166 6.86494 47.8492C6.69751 47.4096 6.34868 47.0817 5.85334 47.0817C5.42777 47.0817 5.0022 47.0817 4.57663 47.0817C4.4371 47.0817 4.29757 47.0817 4.15804 47.0817C4.06036 47.0817 3.96269 47.0748 3.86502 47.0678C4.10222 47.0817 3.80223 47.0538 3.76735 47.0468C3.67665 47.0259 3.58596 47.005 3.49526 46.9771C3.43945 46.9562 3.37666 46.9352 3.32085 46.9143C3.41154 46.9562 3.4255 46.9631 3.35573 46.9282C3.20225 46.8585 3.06271 46.7678 2.91621 46.6771C2.679 46.5306 3.04178 46.8096 2.83946 46.6213C2.77667 46.5585 2.70691 46.5027 2.64412 46.4329C2.58133 46.3701 2.51854 46.3004 2.46273 46.2306C2.60924 46.405 2.42785 46.1748 2.41389 46.1469C2.36506 46.0701 2.31622 45.9934 2.27436 45.9097C2.24646 45.8539 2.21855 45.798 2.19064 45.7422C2.23948 45.8539 2.23948 45.8469 2.19064 45.7353C2.14181 45.5539 2.07902 45.3794 2.05809 45.1911C2.09297 45.4283 2.05809 45.0236 2.05809 44.9818C2.05809 44.8771 2.05809 44.7655 2.05809 44.6609C2.05809 43.6562 2.05809 42.6516 2.05809 41.64C2.05809 41.4935 2.05809 41.354 2.05809 41.2075C2.05809 41.1726 2.05809 41.1307 2.05809 41.0958C2.05809 41.047 2.09297 40.6493 2.05809 40.8796C2.08599 40.6912 2.14181 40.5168 2.19064 40.3354C2.26739 40.0633 2.09297 40.4889 2.22553 40.2447C2.26739 40.161 2.30924 40.0842 2.35808 40.0005C2.40692 39.9238 2.45575 39.847 2.51157 39.7703C2.37901 39.9586 2.5604 39.7214 2.58133 39.7005C2.64412 39.6308 2.70691 39.568 2.77668 39.5052C2.81853 39.4633 2.86737 39.4215 2.91621 39.3866C2.82551 39.4563 2.82551 39.4563 2.92318 39.3866C3.08364 39.2889 3.23015 39.1912 3.40457 39.1215C3.18829 39.2191 3.47433 39.1075 3.50224 39.0936C3.62084 39.0587 3.74642 39.0308 3.86502 39.0029C4.14408 38.9401 3.67665 38.9889 3.96967 38.9959C4.03943 38.9959 4.1092 38.9889 4.17897 38.9889C4.25571 38.9889 4.33943 38.9889 4.41617 38.9889C4.89755 38.9889 5.37894 38.9889 5.86032 38.9889C6.35566 38.9889 6.70448 38.654 6.87192 38.2215C7.0882 37.6424 7.33238 37.1122 7.67423 36.4773C8.00213 35.8774 8.36491 35.2913 8.76257 34.7332C9.13931 34.196 9.49511 33.7565 9.98347 33.2193C10.4649 32.6891 10.9741 32.1868 11.5113 31.7054C11.9997 31.2728 12.6415 30.924 12.6764 30.2054C12.6834 30.031 12.6764 29.8566 12.6764 29.6891C12.6764 28.9706 12.6764 28.252 12.6764 27.5334C12.6764 26.3125 12.6485 25.0846 12.6764 23.8637C12.6764 23.8428 12.7183 23.5846 12.6834 23.7381C12.6415 23.8986 12.7183 23.6405 12.7253 23.6335C12.7183 23.6753 12.6206 23.8218 12.7113 23.6614C12.7392 23.6195 12.7671 23.5707 12.7881 23.5288C12.6834 23.7172 12.7322 23.5846 12.795 23.5288C12.8439 23.487 12.8857 23.4381 12.9346 23.3963C12.8369 23.48 12.8299 23.466 12.9415 23.4102C13.0113 23.3753 13.1578 23.3405 12.9346 23.4032C12.9834 23.3893 13.0322 23.3753 13.0811 23.3614C13.2485 23.2986 13.0741 23.3544 13.0322 23.3614C13.095 23.3544 13.1578 23.3544 13.2276 23.3544C13.3183 23.3474 13.4439 23.4102 13.2206 23.3474C13.2694 23.3614 13.3252 23.3753 13.3741 23.3893C13.5485 23.4312 13.388 23.3963 13.3462 23.3753C13.4159 23.4172 13.4927 23.4591 13.5625 23.5079C13.409 23.3963 13.5136 23.473 13.5415 23.5009C13.6043 23.5637 13.6741 23.6195 13.7438 23.6823C13.9601 23.8777 14.1694 24.066 14.3857 24.2614C15.4671 25.2381 16.5484 26.2148 17.6298 27.1915C17.8949 27.4287 18.2926 27.5892 18.6484 27.4636C18.6623 27.4566 18.6763 27.4497 18.6902 27.4497C18.2507 27.1148 17.8042 26.7799 17.3647 26.4381C17.5391 28.1055 18.0275 29.717 18.8856 31.1682C19.2972 31.8658 19.7925 32.5286 20.3437 33.1216C20.5809 33.3797 20.832 33.6309 21.0971 33.8611C21.4739 34.196 21.8925 34.6146 22.4087 34.6425C23.4483 34.6913 24.4947 34.6425 25.5342 34.6425C27.4598 34.6425 29.3923 34.6425 31.3178 34.6425C32.5108 34.6425 33.7038 34.6774 34.8968 34.6425C35.5456 34.6216 36.1177 34.0146 36.5642 33.5821C37.213 32.9612 37.7851 32.2565 38.2665 31.503C39.292 29.9124 39.8571 28.0915 40.0176 26.2148C39.5781 26.5497 39.1316 26.8846 38.6921 27.2264C39.02 27.338 39.3409 27.4636 39.6618 27.5892C40.0943 27.7566 40.1711 27.7915 40.5548 27.9659C41.1687 28.238 41.7687 28.538 42.3548 28.8589C42.9478 29.1798 43.5198 29.5217 44.0849 29.8915C44.357 30.0659 44.6221 30.2473 44.8803 30.4356C45.0059 30.5263 45.1245 30.61 45.2431 30.7007C45.3128 30.7496 45.3756 30.7984 45.4454 30.8542C45.3058 30.7496 45.5221 30.917 45.55 30.9379C46.5407 31.7263 47.4686 32.5984 48.2988 33.5542C48.4872 33.7704 48.6686 33.9867 48.843 34.21C48.9685 34.3704 48.8779 34.2588 48.8499 34.2239C48.9058 34.3007 48.9616 34.3704 49.0174 34.4472C49.1081 34.5727 49.1988 34.6983 49.2895 34.8309C49.6383 35.3262 49.9592 35.8355 50.2453 36.3657C50.3848 36.6169 50.5173 36.875 50.6429 37.1401C50.7057 37.2657 50.7615 37.3913 50.8173 37.5099C50.8452 37.5796 50.8801 37.6494 50.908 37.7192C50.9987 37.9285 50.8522 37.5727 50.9429 37.8029C51.1522 38.3401 51.3476 38.8773 51.501 39.4354C51.6615 40.0214 51.7801 40.6144 51.8778 41.2144C51.8848 41.2563 51.9057 41.4168 51.8778 41.2075C51.8848 41.2702 51.8917 41.3261 51.8987 41.3888C51.9196 41.5423 51.9336 41.6958 51.9475 41.8423C51.9754 42.1493 51.9894 42.4563 51.9964 42.7632C52.0103 43.4121 51.9754 44.0609 51.9057 44.7097C51.8987 44.7585 51.8708 44.9748 51.8987 44.7795C51.8917 44.8423 51.8778 44.912 51.8708 44.9748C51.8429 45.1422 51.815 45.3027 51.7871 45.4701C51.7243 45.798 51.6545 46.119 51.5638 46.4399C51.4034 47.0538 51.1941 47.6468 50.9638 48.2398C50.8452 48.5398 51.0127 48.1352 50.9359 48.3096C50.9011 48.3863 50.8662 48.4631 50.8383 48.5398C50.7755 48.6794 50.7127 48.8119 50.6499 48.9514C50.5034 49.2514 50.3499 49.5514 50.1825 49.8444C49.4081 51.2119 48.6686 52.1886 47.5942 53.2979C46.45 54.4839 45.3477 55.3699 44.0222 56.235C43.5478 56.542 43.3524 57.1629 43.6454 57.6652C43.9175 58.1326 44.6012 58.3489 45.0756 58.0419C49.9732 54.8327 53.7615 49.8026 54.0824 43.7958C54.3614 38.4517 51.6894 33.4425 47.7128 30.0101C45.2291 27.8683 42.3269 26.2846 39.2362 25.1962C38.5456 24.952 37.9665 25.5799 37.9107 26.2078C37.9037 26.2985 37.8967 26.3962 37.8828 26.4869C37.8758 26.5357 37.8549 26.738 37.8758 26.5915C37.8479 26.7729 37.82 26.9543 37.7851 27.1357C37.7153 27.4706 37.6316 27.8055 37.5339 28.1403C37.3177 28.852 37.1502 29.2426 36.7805 29.9054C36.62 30.1984 36.4386 30.4845 36.2503 30.7566C36.2014 30.8263 36.1456 30.9031 36.0968 30.9728C36.0758 31.0007 36.0549 31.0286 36.034 31.0565C36.0828 31.0007 36.0828 31.0007 36.034 31.0565C35.9363 31.1821 35.8317 31.3007 35.734 31.4193C35.2735 31.9495 34.7573 32.4309 34.1991 32.8635C34.4433 32.7588 34.6945 32.6612 34.9387 32.5565C33.5224 32.5565 32.1062 32.5565 30.6899 32.5565C28.4435 32.5565 26.204 32.5565 23.9575 32.5565C23.4413 32.5565 22.918 32.5565 22.4018 32.5565C22.6459 32.6612 22.8971 32.7588 23.1413 32.8635C22.6111 32.4519 22.1157 31.9984 21.6692 31.4961C21.5646 31.3775 21.4599 31.2519 21.3623 31.1333C21.2995 31.0565 21.3971 31.1891 21.2995 31.0496C21.2437 30.9798 21.1948 30.91 21.146 30.8333C20.9506 30.5612 20.7692 30.2752 20.6018 29.9822C20.239 29.3473 20.0786 28.9775 19.8623 28.3217C19.7576 27.9938 19.667 27.659 19.5902 27.3241C19.5483 27.1427 19.5204 26.9613 19.4856 26.7799C19.4786 26.7311 19.4577 26.6125 19.4786 26.7311C19.4646 26.6404 19.4577 26.5427 19.4437 26.452C19.3809 25.8381 18.8158 25.1823 18.1182 25.4404C18.1042 25.4474 18.0902 25.4544 18.0763 25.4544C18.4181 25.5451 18.753 25.6358 19.0949 25.7264C18.3902 25.0846 17.6786 24.4497 16.974 23.8079C16.2205 23.1242 15.495 22.3707 14.6787 21.7638C13.8276 21.1289 12.5927 21.1149 11.7206 21.7289C10.9811 22.2451 10.5835 23.0474 10.5765 23.9474C10.5695 25.0009 10.5765 26.0543 10.5765 27.1008C10.5765 28.1543 10.5765 29.2078 10.5765 30.2542C10.6811 30.0101 10.7788 29.7589 10.8834 29.5147C8.19747 31.6705 6.05566 34.4472 4.84174 37.6773C5.17661 37.4192 5.51149 37.168 5.85334 36.9099C4.62547 36.9099 3.40457 36.8122 2.26041 37.3634C0.781376 38.054 0 39.6307 0 41.2493C0 42.3237 0 43.3981 0 44.4725C0 44.9678 0.00697636 45.4562 0.118601 45.9515C0.341852 46.9282 0.948814 47.7654 1.74414 48.3515C2.97202 49.2654 4.4371 49.1468 5.87427 49.1468C5.5394 48.8887 5.20452 48.6375 4.86267 48.3794C6.38356 52.4258 9.34163 55.6699 12.9276 58.014C12.7671 57.6233 12.6067 57.2257 12.4462 56.835C11.9927 58.007 11.5392 59.1791 11.0927 60.3512C10.8904 60.8744 10.6323 61.3977 10.5765 61.9558C10.5067 62.6813 10.8137 63.4348 11.3648 63.9022C11.6509 64.1464 11.9718 64.2859 12.3136 64.4185C13.6462 64.9348 14.9787 65.4441 16.3042 65.9603C16.8205 66.1626 17.3368 66.4138 17.9019 66.4138C18.6972 66.4138 19.4577 65.9882 19.8832 65.3255C20.0297 65.0952 20.1204 64.8231 20.2181 64.572C20.7204 63.2674 21.2297 61.9558 21.732 60.6512C21.2995 60.8953 20.8739 61.1395 20.4414 61.3837C24.8157 62.6395 29.476 62.8418 33.9619 62.1651C35.1828 61.9837 36.4037 61.7255 37.5898 61.3837C37.1572 61.1395 36.7316 60.8953 36.2991 60.6512C36.7526 61.8302 37.206 63.0092 37.6595 64.1813C37.9525 64.9417 38.2177 65.6952 38.9851 66.1208C39.7664 66.5533 40.5409 66.4138 41.3153 66.1138C42.6827 65.5836 44.057 65.0534 45.4244 64.5301C45.571 64.4743 45.7175 64.4185 45.8709 64.3557C46.5477 64.0836 47.057 63.6371 47.3291 62.9395C47.6151 62.186 47.3988 61.5163 47.1337 60.8256C46.6174 59.493 46.1082 58.1675 45.5919 56.835C45.3896 56.3048 44.8873 55.942 44.3012 56.1024C43.7989 56.235 43.3733 56.8559 43.5757 57.3861Z" fill="#C29F5B"/>
<path d="M12.6974 32.0543C12.6974 31.4403 12.6974 30.8264 12.6974 30.2125C12.6974 29.6683 12.216 29.1381 11.6509 29.166C11.0858 29.1939 10.6044 29.6264 10.6044 30.2125C10.6044 30.8264 10.6044 31.4403 10.6044 32.0543C10.6044 32.5985 11.0858 33.1287 11.6509 33.1008C12.216 33.0729 12.6974 32.6403 12.6974 32.0543Z" fill="#C29F5B"/>
<path d="M53.0923 44.0539C53.8667 44.1307 54.7109 43.9842 55.4434 43.747C57.1318 43.1958 58.4992 41.9679 59.2038 40.3354C59.8247 38.9122 60.0201 37.3634 59.9991 35.8216C59.9921 35.2774 59.5247 34.7472 58.9526 34.7751C58.3945 34.803 57.8992 35.2356 57.9062 35.8216C57.9131 36.1704 57.9062 36.5192 57.8852 36.875C57.8782 37.0355 57.8643 37.196 57.8503 37.3564C57.8434 37.4192 57.8364 37.482 57.8294 37.5448C57.8015 37.8029 57.8573 37.3983 57.8155 37.6285C57.7248 38.1657 57.6062 38.689 57.4248 39.1982C57.3969 39.275 57.2364 39.6168 57.369 39.3447C57.3201 39.4494 57.2713 39.554 57.2225 39.6517C57.1178 39.854 57.0062 40.0494 56.8806 40.2308C56.8387 40.2936 56.7899 40.4052 56.7201 40.454C56.9085 40.3075 56.8108 40.3424 56.7411 40.4261C56.7132 40.454 56.6922 40.4819 56.6643 40.5168C56.5387 40.6633 56.3992 40.8028 56.2597 40.9354C56.2039 40.9912 56.1411 41.0401 56.0783 41.0959C55.869 41.2773 56.2597 40.9703 56.0434 41.1238C55.8969 41.2214 55.7574 41.3191 55.6039 41.4028C55.4713 41.4796 55.3388 41.5424 55.2062 41.6052C55.1713 41.6191 55.1365 41.6331 55.1016 41.654C54.9899 41.7098 55.3737 41.5563 55.2062 41.6121C55.1295 41.64 55.0597 41.6679 54.983 41.6958C54.7318 41.7865 54.4737 41.8493 54.2086 41.9051C54.076 41.9331 53.6784 41.94 54.1249 41.9261C54.0132 41.9261 53.9016 41.954 53.79 41.961C53.5598 41.9749 53.3225 41.9889 53.0923 41.961C52.5481 41.9051 52.0249 42.4842 52.0458 43.0074C52.0737 43.6214 52.5063 43.9911 53.0923 44.0539Z" fill="#C29F5B"/>
<path d="M37.9801 25.3567C37.9731 26.2567 37.9173 26.7869 37.701 27.6311C37.6103 27.9939 37.4917 28.3567 37.3591 28.7125C37.2545 28.9915 37.1568 29.2148 36.9615 29.5845C36.801 29.8985 36.6196 30.2055 36.4243 30.4985C36.3196 30.6589 36.208 30.8194 36.0894 30.9729C36.0476 31.0287 36.0476 31.0287 36.0964 30.9729C36.0755 31.0008 36.0545 31.0287 36.0336 31.0566C35.9778 31.1264 35.922 31.1961 35.8662 31.2589C35.3778 31.838 34.8267 32.3612 34.2336 32.8217C34.4778 32.717 34.729 32.6194 34.9732 32.5147C33.5569 32.5147 32.1407 32.5147 30.7244 32.5147C28.478 32.5147 26.2385 32.5147 23.992 32.5147C23.4758 32.5147 22.9525 32.5147 22.4363 32.5147C22.6804 32.6194 22.9316 32.717 23.1758 32.8217C21.9758 31.8938 21.1665 30.952 20.4828 29.6613C20.3991 29.5008 20.3224 29.3473 20.2456 29.1799C20.2456 29.1799 20.1061 28.859 20.1759 29.0334C20.148 28.9706 20.12 28.9008 20.0921 28.8311C19.9456 28.4613 19.827 28.0846 19.7224 27.7009C19.6317 27.366 19.5619 27.0241 19.5061 26.6823C19.4712 26.473 19.534 26.9265 19.4922 26.5776C19.4852 26.5009 19.4782 26.4172 19.4642 26.3404C19.4433 26.1032 19.4294 25.866 19.4224 25.6219C19.4154 25.273 19.4224 24.9242 19.4503 24.5754C19.4642 24.4149 19.4782 24.2544 19.4991 24.094C19.4782 24.2963 19.4922 24.1289 19.4991 24.087C19.5201 23.9614 19.541 23.8359 19.5619 23.7103C19.6805 23.0963 19.848 22.4894 20.0712 21.9103C20.0712 21.9173 20.1828 21.6382 20.12 21.7778C20.0642 21.9173 20.1828 21.6382 20.1759 21.6452C20.2386 21.5057 20.3084 21.3661 20.3712 21.2266C20.5247 20.9266 20.6921 20.6336 20.8665 20.3476C20.9433 20.229 21.013 20.1173 21.0968 20.0057C21.1386 19.9429 21.1875 19.8801 21.2293 19.8173C21.2223 19.8243 21.4037 19.5801 21.313 19.7057C21.2223 19.8243 21.4037 19.5871 21.3968 19.5941C21.4316 19.5453 21.4735 19.4964 21.5154 19.4546C21.634 19.315 21.7526 19.1755 21.8781 19.043C22.0874 18.8197 22.3037 18.6104 22.527 18.4011C22.6386 18.2965 22.7572 18.1988 22.8758 18.1011C22.9246 18.0593 22.9735 18.0244 23.0153 17.9895C23.106 17.9127 23.113 17.9127 23.0223 17.9825C23.0572 17.9546 23.0921 17.9267 23.1339 17.8988C23.6502 17.536 24.1734 17.2081 24.7455 16.936C24.885 16.8663 25.0246 16.8035 25.1641 16.7477C24.9827 16.8244 25.1362 16.7616 25.1711 16.7477C25.2548 16.7128 25.3455 16.6779 25.4292 16.65C25.7362 16.5384 26.0501 16.4407 26.3641 16.357C26.6571 16.2802 26.9501 16.2174 27.2431 16.1686C27.3338 16.1547 27.4315 16.1407 27.5292 16.1267C27.4873 16.1337 27.3268 16.1477 27.5361 16.1267C27.7315 16.1058 27.9198 16.0919 28.1152 16.0779C28.4431 16.057 28.764 16.057 29.0919 16.0709C29.2524 16.0779 29.4128 16.0849 29.5733 16.0988C29.6361 16.1058 29.6989 16.1128 29.7686 16.1198C29.8314 16.1267 30.0617 16.1547 29.8733 16.1267C30.5291 16.2174 31.1709 16.3709 31.7918 16.5872C31.9384 16.636 32.0849 16.6918 32.2244 16.7477C32.4128 16.8174 32.2732 16.7616 32.2314 16.7477C32.3151 16.7825 32.3988 16.8244 32.4825 16.8593C32.7616 16.9849 33.0337 17.1314 33.2988 17.2779C33.5639 17.4314 33.822 17.5918 34.0732 17.7662C34.1499 17.8151 34.2197 17.8709 34.2964 17.9267C34.3243 17.9476 34.4569 18.0453 34.3034 17.9267C34.4499 18.0383 34.5894 18.1569 34.729 18.2755C34.9801 18.4918 35.2243 18.729 35.4545 18.9662C35.5801 19.0988 35.6987 19.2313 35.8173 19.3708C35.8662 19.4267 35.915 19.4895 35.9638 19.5453C35.9917 19.5801 36.1871 19.8383 36.0545 19.6569C36.4731 20.222 36.8429 20.822 37.1429 21.4568C37.1708 21.5127 37.1917 21.5685 37.2196 21.6243C37.2475 21.6801 37.3312 21.8824 37.2615 21.715C37.3312 21.8894 37.394 22.0638 37.4568 22.2382C37.5754 22.5801 37.6731 22.9219 37.7568 23.2708C37.7987 23.4382 37.8336 23.6126 37.8615 23.78C37.8754 23.8707 37.8894 23.9684 37.9103 24.0591C37.9452 24.2893 37.8963 23.9056 37.9242 24.1638C37.9522 24.5754 37.9801 24.9661 37.9801 25.3567C37.9801 25.9009 38.4614 26.4311 39.0265 26.4032C39.5917 26.3753 40.073 25.9428 40.073 25.3567C40.0591 22.6498 39.0963 20.0615 37.3591 17.9895C35.7266 16.036 33.3616 14.6547 30.85 14.1942C28.178 13.7059 25.4013 14.1384 23.0432 15.4919C20.7479 16.8104 19.0108 18.9034 18.062 21.3592C17.0364 24.0103 17.1062 27.073 18.2015 29.6892C18.7945 31.1054 19.6456 32.3891 20.741 33.4635C21.1944 33.91 21.8014 34.5658 22.4502 34.6007C22.5479 34.6077 22.6456 34.6007 22.7432 34.6007C25.8199 34.6007 28.8966 34.6007 31.9732 34.6007C32.9639 34.6007 33.9685 34.6426 34.9592 34.6007C35.5871 34.5728 36.1592 33.9589 36.5987 33.5403C37.1289 33.031 37.6033 32.4589 38.0359 31.8519C38.88 30.6659 39.487 29.2846 39.8009 27.8613C39.9823 27.0381 40.073 26.187 40.08 25.3428C40.087 24.7986 39.5986 24.2684 39.0335 24.2963C38.4545 24.3312 37.987 24.7707 37.9801 25.3567Z" fill="#C29F5B"/>
<path d="M38.1687 32.5146C36.0199 32.5146 33.8711 32.5146 31.7154 32.5146C28.6875 32.5146 25.6597 32.5146 22.6319 32.5146C21.4947 32.5146 20.3575 32.5146 19.2273 32.5146C18.6831 32.5146 18.1529 32.996 18.1808 33.5611C18.2087 34.1262 18.6413 34.6076 19.2273 34.6076C21.3761 34.6076 23.5249 34.6076 25.6806 34.6076C28.7085 34.6076 31.7363 34.6076 34.7641 34.6076C35.9013 34.6076 37.0385 34.6076 38.1687 34.6076C38.7129 34.6076 39.2431 34.1262 39.2152 33.5611C39.1943 32.9891 38.7617 32.5146 38.1687 32.5146Z" fill="#C29F5B"/>
<path d="M12.474 40.161C13.0182 40.161 13.5484 39.6796 13.5205 39.1145C13.4926 38.5494 13.06 38.068 12.474 38.068C11.9298 38.068 11.3996 38.5494 11.4275 39.1145C11.4484 39.6796 11.888 40.161 12.474 40.161Z" fill="#C29F5B"/>
</g>
<defs>
<clipPath id="clip0">
<rect width="60" height="80" fill="white"/>
</clipPath>
</defs>
</svg>
