<svg width="60" height="80" viewBox="0 0 60 80" fill="none" xmlns="http://www.w3.org/2000/svg">
<g clip-path="url(#clip0)">
<path d="M53.3765 21.0044C53.2436 21.0017 53.1114 21.0236 52.9865 21.0692L44.934 24.0111C44.7655 24.0727 44.6152 24.1758 44.4969 24.3106C44.3786 24.4455 44.2961 24.6079 44.2568 24.7829L27.9589 26.7866L17.6178 33.2234C17.146 33.5161 16.7764 33.9478 16.56 34.4592C16.3436 34.9705 16.291 35.5363 16.4094 36.0788C16.5278 36.6212 16.8115 37.1139 17.2213 37.4885C17.6311 37.8632 18.1469 38.1017 18.6978 38.1712C21.8754 38.5713 25.1027 38.1576 28.0767 36.969L31.3787 35.6512C31.5724 35.5739 31.7845 35.5546 31.9889 35.5961C32.1933 35.6375 32.3811 35.7379 32.5294 35.8845L42.5833 45.8697C42.8001 46.0843 42.9686 46.3428 43.0775 46.6277C43.1865 46.9127 43.2333 47.2174 43.2149 47.5219C43.1965 47.8264 43.1133 48.1234 42.9709 48.3931C42.8284 48.6629 42.6301 48.8992 42.389 49.0861C42.1479 49.2731 41.8697 49.4064 41.573 49.4771C41.2763 49.5479 40.9679 49.5544 40.6684 49.4964C40.369 49.4384 40.0853 49.317 39.8365 49.1405C39.5877 48.9641 39.3794 48.7366 39.2256 48.4732C39.0775 48.2364 38.8427 48.0667 38.5713 48.0004C38.2999 47.9342 38.0134 47.9766 37.7728 48.1185C37.5322 48.2605 37.3566 48.4908 37.2833 48.7604C37.2101 49.03 37.245 49.3175 37.3807 49.5617C37.6632 50.0332 37.7537 50.5954 37.6334 51.1318C37.5131 51.6682 37.1912 52.1379 36.7344 52.4437C36.2775 52.7495 35.7206 52.868 35.1788 52.7746C34.6371 52.6813 34.1519 52.3835 33.8237 51.9425C33.6505 51.7238 33.399 51.5812 33.1224 51.5451C32.8459 51.5089 32.5661 51.5819 32.3426 51.7487C32.1192 51.9156 31.9695 52.1631 31.9256 52.4385C31.8816 52.7139 31.9468 52.9956 32.1073 53.2237C32.3614 53.5717 32.484 53.9986 32.4532 54.4283C32.4223 54.8581 32.2401 55.263 31.9389 55.5712C31.6377 55.8793 31.237 56.0706 30.8081 56.1112C30.3791 56.1518 29.9496 56.039 29.596 55.7929L28.0446 57.2951C28.5853 57.7628 29.2423 58.0754 29.9463 58.2001C30.6502 58.3249 31.3748 58.2571 32.0432 58.0037C32.7117 57.7502 33.2992 57.3208 33.7435 56.7607C34.1878 56.2007 34.4724 55.5309 34.5672 54.8223C35.1282 54.9523 35.7097 54.9678 36.2769 54.868C36.8441 54.7683 37.3854 54.5554 37.8684 54.2417C38.3514 53.9281 38.7663 53.5203 39.0882 53.0428C39.4101 52.5653 39.6325 52.0277 39.742 51.4623C40.6587 51.7628 41.65 51.7454 42.5555 51.4126C43.461 51.0798 44.2278 50.4513 44.7317 49.6286C45.2356 48.806 45.4472 47.8374 45.3323 46.8796C45.2173 45.9217 44.7825 45.0305 44.0983 44.3505L34.0401 34.3645C33.5952 33.9232 33.031 33.6217 32.417 33.4968C31.8029 33.3719 31.1657 33.4291 30.5838 33.6616L27.2817 34.9794C24.6458 36.0316 21.7858 36.3972 18.9699 36.0422C18.8589 36.028 18.7551 35.98 18.6725 35.9045C18.5899 35.8291 18.5326 35.7298 18.5084 35.6205C18.4843 35.5113 18.4945 35.3973 18.5375 35.2941C18.5806 35.1908 18.6546 35.1034 18.7492 35.0437L28.6917 28.8533L44.8375 26.8691L49.3416 39.1899C47.4687 40.4573 45.3901 41.3904 43.1983 41.9476L44.9425 43.677C46.8225 43.0812 48.6124 42.232 50.263 41.1528C50.4045 41.252 50.5678 41.3155 50.739 41.3379C50.9103 41.3603 51.0844 41.341 51.2466 41.2816L59.297 38.3395C59.4293 38.2914 59.5508 38.2178 59.6546 38.1227C59.7584 38.0277 59.8424 37.9132 59.9019 37.7856C59.9614 37.658 59.9952 37.5199 60.0013 37.3793C60.0075 37.2387 59.9858 37.0983 59.9377 36.966L54.36 21.7029C54.2859 21.5003 54.1524 21.3249 53.9769 21.1995C53.8014 21.074 53.5921 21.0046 53.3765 21V21.0044ZM52.7144 23.4535L57.5571 36.7023L51.5187 38.9074L46.676 25.6586L52.7144 23.4535Z" fill="#C29F5B"/>
<path d="M17.3972 38.8881C16.2747 38.8797 15.1937 39.3122 14.3866 40.0924L10.8017 43.5743C10.1317 44.2236 9.69189 45.0739 9.54907 45.9959C9.40626 46.9179 9.56824 47.8614 10.0104 48.683C10.4526 49.5045 11.1508 50.1593 11.9991 50.548C12.8473 50.9366 13.7992 51.0378 14.7101 50.8361C14.7539 51.5164 14.9593 52.1765 15.3093 52.7615C15.6592 53.3464 16.1437 53.8392 16.7224 54.1994C17.3011 54.5596 17.9573 54.7767 18.6367 54.8324C19.316 54.888 19.9989 54.7808 20.6285 54.5197C20.7736 55.2136 21.1022 55.856 21.58 56.3798C22.0578 56.9035 22.6673 57.2895 23.345 57.4976C24.0227 57.7058 24.7439 57.7282 25.4333 57.5629C26.1227 57.3975 26.7551 57.0504 27.2647 56.5575L29.7717 54.1297C30.3503 53.5702 30.7448 52.848 30.9029 52.0588C31.061 51.2696 30.9751 50.451 30.6567 49.7118C30.3383 48.9727 29.8024 48.348 29.1204 47.9207C28.4383 47.4935 27.6423 47.2838 26.8383 47.3199C26.8731 46.6602 26.7549 46.0016 26.493 45.3951C26.231 44.7886 25.8324 44.2509 25.3283 43.8239C24.8242 43.397 24.2282 43.0922 23.5869 42.9337C22.9456 42.7752 22.2763 42.7673 21.6313 42.9102C21.5614 41.8281 21.0839 40.8127 20.2949 40.0687C19.506 39.3247 18.4644 38.9073 17.38 38.9009L17.3972 38.8881ZM17.3115 41.0309C17.7423 41.0196 18.1665 41.1386 18.5287 41.3722C18.8909 41.6057 19.1742 41.943 19.3418 42.34C19.5093 42.7371 19.5532 43.1754 19.4678 43.5978C19.3823 44.0202 19.1715 44.4073 18.8629 44.708L15.278 48.1899C14.8697 48.5857 14.3208 48.8033 13.7522 48.7944C13.1836 48.7856 12.6418 48.551 12.2459 48.1427C11.8501 47.7344 11.6327 47.1856 11.6416 46.617C11.6504 46.0484 11.8848 45.5064 12.2931 45.1106L15.8801 41.6332C16.2651 41.2604 16.7758 41.0454 17.3115 41.0306V41.0309ZM22.467 44.9608C22.8982 44.9429 23.3249 45.0553 23.691 45.2839C24.0571 45.5124 24.3457 45.8463 24.5189 46.2416C24.6922 46.6369 24.742 47.0755 24.6618 47.4996C24.5817 47.9237 24.3753 48.3136 24.0698 48.6184L20.4785 52.0964C20.0697 52.4878 19.5226 52.7016 18.9567 52.691C18.3907 52.6805 17.852 52.4464 17.458 52.04C17.0641 51.6336 16.8469 51.0877 16.854 50.5218C16.8611 49.9558 17.0918 49.4155 17.4958 49.0191L21.0849 45.5414C21.4607 45.1877 21.9514 44.9817 22.467 44.9608ZM26.954 49.4585C27.3207 49.4453 27.6829 49.5431 27.993 49.7393C28.3031 49.9355 28.5468 50.2208 28.692 50.5579C28.8372 50.8949 28.8773 51.2679 28.8069 51.628C28.7365 51.9882 28.5589 52.3186 28.2975 52.5761L25.7776 55.0167C25.4283 55.3374 24.9677 55.5093 24.4937 55.4957C24.0197 55.4821 23.5697 55.2842 23.2393 54.9441C22.9089 54.6039 22.7242 54.1484 22.7244 53.6742C22.7247 53.2 22.9098 52.7446 23.2405 52.4048L25.7605 49.962C26.0831 49.6535 26.5079 49.4742 26.954 49.4583V49.4585Z" fill="#C29F5B"/>
<path d="M11.4314 24.2977C11.27 24.2948 11.1101 24.3284 10.9635 24.396C10.817 24.4636 10.6876 24.5635 10.585 24.6882L0.24396 37.2213C0.154361 37.3302 0.0871505 37.4558 0.0461855 37.5907C0.00522041 37.7257 -0.00869313 37.8673 0.00524265 38.0077C0.0191784 38.148 0.0606895 38.2843 0.127394 38.4086C0.194099 38.5328 0.284685 38.6427 0.393954 38.7318L6.63372 43.8766C6.77415 43.9936 6.94219 44.0727 7.12184 44.1064C7.3015 44.1402 7.4868 44.1274 7.66011 44.0694C8.02117 44.3111 8.39688 44.5301 8.78507 44.7253H8.76361C9.02546 44.0466 9.42281 43.4284 9.93143 42.9082C9.60415 42.7561 9.28707 42.583 8.98217 42.3899L17.5619 31.989L21.4617 29.5613C20.4174 29.5387 19.3728 29.5887 18.3354 29.711L12.0957 24.5614C11.9092 24.4087 11.6767 24.3233 11.4357 24.3192L11.4314 24.2977ZM11.56 26.8797L15.9998 30.5417L7.02371 41.4228L2.58816 37.7608L11.56 26.8797Z" fill="#C29F5B"/>
</g>
<defs>
<clipPath id="clip0">
<rect width="60" height="80" fill="white"/>
</clipPath>
</defs>
</svg>
